<?xml version="1.0" standalone="no"?>
<!DOCTYPE svg PUBLIC "-//W3C//DTD SVG 20010904//EN"
 "http://www.w3.org/TR/2001/REC-SVG-20010904/DTD/svg10.dtd">
<svg version="1.0" xmlns="http://www.w3.org/2000/svg"
 width="669.000000pt" height="669.000000pt" viewBox="0 0 669.000000 669.000000"
 preserveAspectRatio="xMidYMid meet">
<metadata>
Created by potrace 1.11, written by Peter Selinger 2001-2013
</metadata>
<g transform="translate(0.000000,669.000000) scale(0.100000,-0.100000)"
fill="#000000" stroke="none">
<path d="M3704 6480 c-38 -10 -86 -25 -106 -33 -37 -16 -2068 -1200 -2174
-1268 -118 -76 -242 -224 -297 -355 -66 -156 -62 -69 -62 -1348 l0 -1158 882
-509 883 -510 882 510 883 509 1 519 c2 487 1 511 -12 403 -33 -271 -118 -479
-274 -674 -185 -229 -468 -393 -760 -441 -712 -115 -1366 387 -1440 1106 -5
56 -10 329 -10 613 l0 511 881 508 881 509 191 -111 c106 -60 507 -292 892
-514 l700 -405 0 -1138 c0 -1058 -1 -1144 -18 -1215 -21 -91 -72 -201 -132
-285 -97 -135 -95 -134 -1241 -796 -588 -339 -1091 -626 -1117 -637 -65 -28
-152 -50 -239 -60 -46 -6 144 -8 517 -7 647 2 628 1 770 65 61 28 2030 1161
2142 1233 77 49 196 173 246 254 47 78 85 178 103 272 21 110 21 2515 0 2624
-42 217 -171 412 -349 527 -102 65 -2127 1232 -2193 1263 -124 58 -296 74
-430 38z"/>
</g>
</svg>
